<mxfile host="app.diagrams.net" modified="2023-06-21T08:35:37.701Z" agent="Mozilla/5.0 (Windows NT 10.0; Win64; x64) AppleWebKit/537.36 (KHTML, like Gecko) Chrome/114.0.0.0 Safari/537.36" etag="N9ylOJNQg2y8GCsZt0af" version="21.5.0" type="github">
  <diagram name="Page-1" id="929967ad-93f9-6ef4-fab6-5d389245f69c">
    <mxGraphModel dx="988" dy="504" grid="1" gridSize="10" guides="1" tooltips="1" connect="1" arrows="1" fold="1" page="1" pageScale="1.5" pageWidth="1169" pageHeight="827" background="none" math="0" shadow="0">
      <root>
        <mxCell id="0" style=";html=1;" />
        <mxCell id="1" style=";html=1;" parent="0" />
        <mxCell id="eMuGsfv35JqwVAdVRP3y-40" value="&lt;p style=&quot;margin: 0px ; margin-top: 4px ; margin-left: 10px ; text-align: left&quot;&gt;&lt;b&gt;uc &lt;/b&gt;Energieregelung&lt;/p&gt;" style="html=1;strokeWidth=1;shape=mxgraph.sysml.package;html=1;overflow=fill;whiteSpace=wrap;fillColor=none;gradientColor=none;fontSize=12;align=center;labelX=134.5;" parent="1" vertex="1">
          <mxGeometry x="240" y="120" width="760" height="310" as="geometry" />
        </mxCell>
        <mxCell id="eMuGsfv35JqwVAdVRP3y-24" style="edgeStyle=orthogonalEdgeStyle;rounded=0;orthogonalLoop=1;jettySize=auto;html=1;exitX=1;exitY=0.5;exitDx=0;exitDy=0;entryX=0;entryY=0.5;entryDx=0;entryDy=0;fontSize=14;strokeWidth=2;endArrow=block;endFill=0;startArrow=none;startFill=0;" parent="1" source="eMuGsfv35JqwVAdVRP3y-26" target="eMuGsfv35JqwVAdVRP3y-39" edge="1">
          <mxGeometry relative="1" as="geometry">
            <mxPoint x="540" y="210" as="targetPoint" />
          </mxGeometry>
        </mxCell>
        <mxCell id="eMuGsfv35JqwVAdVRP3y-25" value="&lt;font style=&quot;font-size: 14px;&quot;&gt;Energiekapazität&lt;br style=&quot;font-size: 14px;&quot;&gt;übermitteln&lt;/font&gt;" style="edgeLabel;html=1;align=center;verticalAlign=middle;resizable=0;points=[];labelBackgroundColor=none;fontSize=14;" parent="eMuGsfv35JqwVAdVRP3y-24" vertex="1" connectable="0">
          <mxGeometry x="-0.3292" y="3" relative="1" as="geometry">
            <mxPoint x="27" y="-20" as="offset" />
          </mxGeometry>
        </mxCell>
        <mxCell id="eMuGsfv35JqwVAdVRP3y-26" value="Automatisierungs-system" style="rounded=0;whiteSpace=wrap;html=1;fontStyle=1;fontSize=14;shadow=1;" parent="1" vertex="1">
          <mxGeometry x="260" y="180" width="160" height="60" as="geometry" />
        </mxCell>
        <mxCell id="eMuGsfv35JqwVAdVRP3y-27" style="edgeStyle=orthogonalEdgeStyle;rounded=0;orthogonalLoop=1;jettySize=auto;html=1;exitX=1;exitY=0.5;exitDx=0;exitDy=0;entryX=0;entryY=0.5;entryDx=0;entryDy=0;endArrow=block;endFill=0;strokeWidth=2;startArrow=none;startFill=0;" parent="1" source="eMuGsfv35JqwVAdVRP3y-39" target="eMuGsfv35JqwVAdVRP3y-29" edge="1">
          <mxGeometry relative="1" as="geometry">
            <mxPoint x="700" y="210" as="sourcePoint" />
          </mxGeometry>
        </mxCell>
        <mxCell id="eMuGsfv35JqwVAdVRP3y-28" value="Schalbefehele&lt;br&gt;übermitteln" style="edgeLabel;html=1;align=center;verticalAlign=middle;resizable=0;points=[];fontSize=14;labelBackgroundColor=none;" parent="eMuGsfv35JqwVAdVRP3y-27" vertex="1" connectable="0">
          <mxGeometry x="0.1396" y="2" relative="1" as="geometry">
            <mxPoint x="-9" y="-21" as="offset" />
          </mxGeometry>
        </mxCell>
        <mxCell id="eMuGsfv35JqwVAdVRP3y-29" value="&lt;span style=&quot;font-weight: normal;&quot;&gt;&lt;font style=&quot;font-size: 12px;&quot;&gt;&amp;lt;&amp;lt;actor&amp;gt;&amp;gt;&lt;/font&gt;&lt;/span&gt;&lt;br&gt;Energiemanagement-system" style="rounded=0;whiteSpace=wrap;html=1;fontStyle=1;fontSize=14;shadow=1;" parent="1" vertex="1">
          <mxGeometry x="820" y="180" width="160" height="60" as="geometry" />
        </mxCell>
        <mxCell id="eMuGsfv35JqwVAdVRP3y-30" value="&lt;b style=&quot;font-size: 14px;&quot;&gt;eingehende Anfrage&lt;br&gt;überprüfen&lt;/b&gt;" style="ellipse;whiteSpace=wrap;html=1;shadow=1;" parent="1" vertex="1">
          <mxGeometry x="380" y="322" width="120" height="80" as="geometry" />
        </mxCell>
        <mxCell id="eMuGsfv35JqwVAdVRP3y-31" value="&lt;span style=&quot;font-size: 14px;&quot;&gt;&lt;b&gt;Daten verarbeiten&lt;/b&gt;&lt;/span&gt;" style="ellipse;whiteSpace=wrap;html=1;shadow=1;" parent="1" vertex="1">
          <mxGeometry x="560" y="322" width="120" height="80" as="geometry" />
        </mxCell>
        <mxCell id="eMuGsfv35JqwVAdVRP3y-32" value="&lt;span style=&quot;font-size: 14px;&quot;&gt;&lt;b&gt;Signal ausgeben&lt;/b&gt;&lt;/span&gt;" style="ellipse;whiteSpace=wrap;html=1;shadow=1;" parent="1" vertex="1">
          <mxGeometry x="740" y="322" width="120" height="80" as="geometry" />
        </mxCell>
        <mxCell id="eMuGsfv35JqwVAdVRP3y-33" style="edgeStyle=orthogonalEdgeStyle;rounded=0;orthogonalLoop=1;jettySize=auto;html=1;exitX=0;exitY=1;exitDx=0;exitDy=0;entryX=0.5;entryY=0;entryDx=0;entryDy=0;elbow=vertical;curved=1;" parent="1" source="eMuGsfv35JqwVAdVRP3y-39" target="eMuGsfv35JqwVAdVRP3y-30" edge="1">
          <mxGeometry relative="1" as="geometry">
            <Array as="points">
              <mxPoint x="563" y="240" />
              <mxPoint x="440" y="240" />
            </Array>
          </mxGeometry>
        </mxCell>
        <mxCell id="eMuGsfv35JqwVAdVRP3y-34" value="&amp;lt;&amp;lt;include&amp;gt;&amp;gt;" style="edgeLabel;html=1;align=center;verticalAlign=middle;resizable=0;points=[];" parent="eMuGsfv35JqwVAdVRP3y-33" vertex="1" connectable="0">
          <mxGeometry x="-0.1363" y="2" relative="1" as="geometry">
            <mxPoint x="-25" y="48" as="offset" />
          </mxGeometry>
        </mxCell>
        <mxCell id="eMuGsfv35JqwVAdVRP3y-35" style="edgeStyle=orthogonalEdgeStyle;rounded=0;orthogonalLoop=1;jettySize=auto;html=1;exitX=0.5;exitY=1;exitDx=0;exitDy=0;entryX=0.5;entryY=0;entryDx=0;entryDy=0;elbow=vertical;curved=1;" parent="1" source="eMuGsfv35JqwVAdVRP3y-39" target="eMuGsfv35JqwVAdVRP3y-31" edge="1">
          <mxGeometry relative="1" as="geometry" />
        </mxCell>
        <mxCell id="eMuGsfv35JqwVAdVRP3y-36" value="&amp;lt;&amp;lt;include&amp;gt;&amp;gt;" style="edgeLabel;html=1;align=center;verticalAlign=middle;resizable=0;points=[];" parent="eMuGsfv35JqwVAdVRP3y-35" vertex="1" connectable="0">
          <mxGeometry x="-0.25" relative="1" as="geometry">
            <mxPoint y="13" as="offset" />
          </mxGeometry>
        </mxCell>
        <mxCell id="eMuGsfv35JqwVAdVRP3y-37" style="edgeStyle=orthogonalEdgeStyle;rounded=0;orthogonalLoop=1;jettySize=auto;html=1;exitX=1;exitY=1;exitDx=0;exitDy=0;entryX=0.5;entryY=0;entryDx=0;entryDy=0;elbow=vertical;curved=1;" parent="1" source="eMuGsfv35JqwVAdVRP3y-39" target="eMuGsfv35JqwVAdVRP3y-32" edge="1">
          <mxGeometry relative="1" as="geometry">
            <Array as="points">
              <mxPoint x="677" y="240" />
              <mxPoint x="800" y="240" />
            </Array>
          </mxGeometry>
        </mxCell>
        <mxCell id="eMuGsfv35JqwVAdVRP3y-38" value="&amp;lt;&amp;lt;include&amp;gt;&amp;gt;" style="edgeLabel;html=1;align=center;verticalAlign=middle;resizable=0;points=[];" parent="eMuGsfv35JqwVAdVRP3y-37" vertex="1" connectable="0">
          <mxGeometry x="-0.4047" y="-4" relative="1" as="geometry">
            <mxPoint x="64" y="46" as="offset" />
          </mxGeometry>
        </mxCell>
        <mxCell id="eMuGsfv35JqwVAdVRP3y-39" value="&lt;span style=&quot;color: rgb(0, 0, 0); font-family: Helvetica; font-size: 14px; font-style: normal; font-variant-ligatures: normal; font-variant-caps: normal; font-weight: 700; letter-spacing: normal; orphans: 2; text-align: center; text-indent: 0px; text-transform: none; widows: 2; word-spacing: 0px; -webkit-text-stroke-width: 0px; background-color: rgb(251, 251, 251); text-decoration-thickness: initial; text-decoration-style: initial; text-decoration-color: initial; float: none; display: inline !important;&quot;&gt;Industrie-4.0-Komponente&lt;/span&gt;" style="ellipse;whiteSpace=wrap;html=1;shadow=1;" parent="1" vertex="1">
          <mxGeometry x="540" y="170" width="160" height="80" as="geometry" />
        </mxCell>
      </root>
    </mxGraphModel>
  </diagram>
</mxfile>
